# Blender v2.78 (sub 0) OBJ File: 'coral.blend'
# www.blender.org
mtllib coral.mtl
o Circle_Circle.001
v 0.000000 0.000000 0.000000
v 0.000000 0.000000 -1.000000
v -0.500000 0.000000 -0.866025
v -0.866025 0.000000 -0.500000
v -1.000000 0.000000 0.000000
v -0.866025 0.000000 0.500000
v -0.500000 0.000000 0.866025
v -0.000000 0.000000 1.000000
v 0.500000 0.000000 0.866026
v 0.866025 0.000000 0.500000
v 1.000000 0.000000 0.000000
v 0.866026 0.000000 -0.499999
v 0.500001 0.000000 -0.866025
vt 0.5000 0.5000
vt 0.6036 0.8866
vt 0.3964 0.8866
vt 0.2170 0.7830
vt 0.1134 0.6036
vt 0.1134 0.3964
vt 0.2170 0.2170
vt 0.3964 0.1134
vt 0.6036 0.1134
vt 0.7830 0.2170
vt 0.8866 0.3964
vt 0.8866 0.6036
vt 0.7830 0.7830
vn 0.0000 1.0000 0.0000
usemtl None
s off
f 1/1/1 2/2/1 3/3/1
f 1/1/1 3/3/1 4/4/1
f 1/1/1 4/4/1 5/5/1
f 1/1/1 5/5/1 6/6/1
f 1/1/1 6/6/1 7/7/1
f 1/1/1 7/7/1 8/8/1
f 1/1/1 8/8/1 9/9/1
f 1/1/1 9/9/1 10/10/1
f 1/1/1 10/10/1 11/11/1
f 1/1/1 11/11/1 12/12/1
f 1/1/1 12/12/1 13/13/1
f 1/1/1 13/13/1 2/2/1
o Circle.006_Circle.007
v -0.000000 0.116456 -0.000000
v -0.000000 0.228446 -1.000000
v -0.500000 0.116456 -0.866025
v -0.866025 0.250145 -0.500000
v -1.000000 0.250145 0.000000
v -0.866025 0.116456 0.500000
v -0.500000 0.243589 0.866025
v -0.000000 0.243589 1.000000
v 0.500000 0.116456 0.866025
v 0.866025 0.245863 0.500000
v 1.000000 0.245863 0.000000
v 0.866026 0.116456 -0.499999
v 0.500001 0.228446 -0.866025
v 0.253647 0.368877 -0.340337
v 0.900212 0.540722 -0.905964
v 0.542160 0.401769 -1.161119
v 0.082573 0.466523 -1.196346
v -0.321524 0.420454 -1.002206
v -0.561852 0.275907 -0.630718
v -0.609389 0.381891 -0.181424
v -0.416499 0.403881 0.225290
v -0.034865 0.335986 0.480444
v 0.398776 0.498819 0.515671
v 0.802872 0.544887 0.321532
v 1.069147 0.461847 -0.049955
v 1.093103 0.562713 -0.499250
v 0.269213 0.117504 -0.340217
v -0.000677 -0.158139 0.001145
v 0.353387 0.544483 0.102672
v -0.202616 0.319582 0.680994
v 0.169409 0.403299 0.897528
v 0.494284 0.703701 0.910526
v 0.819825 0.890193 0.703297
v 1.058805 0.912804 0.331369
v 1.006376 1.026603 -0.091811
v 0.815516 0.943465 -0.466458
v 0.537365 0.685666 -0.692185
v 0.109206 0.576799 -0.695069
v -0.216336 0.390307 -0.487840
v -0.352031 0.176161 -0.126027
v -0.393476 0.236444 0.306347
v -0.131075 0.287479 0.242398
v 0.096428 0.221569 -0.556398
v -0.336319 0.151146 -0.548086
v -0.703700 0.316987 -0.365106
v -0.921777 0.395356 -0.004550
v -0.932118 0.365256 0.436970
v -0.716809 0.526360 0.786925
v -0.348483 0.547793 1.005044
v 0.074169 0.423812 1.032883
v 0.452656 0.471865 0.810129
v 0.670734 0.393495 0.449573
v 0.669968 0.209702 0.047827
v 0.464755 0.243002 -0.338278
v -0.239763 0.671139 -0.052146
v 0.088720 0.592874 0.877784
v 0.502119 0.509251 0.572414
v 0.732205 0.706177 0.142790
v 0.695689 0.799236 -0.356235
v 0.402356 0.763494 -0.790946
v -0.046606 0.954794 -0.981945
v -0.553186 0.980245 -0.940130
v -0.981645 0.833026 -0.676706
v -1.195161 0.890085 -0.200931
v -1.158645 0.797026 0.298094
v -0.881882 0.578783 0.686654
v -0.417860 0.618325 0.919599
v -0.218498 0.808923 0.127839
v 0.395264 0.834118 0.066994
v 0.262550 0.756057 -0.219059
v 0.045566 0.745077 -0.428456
v -0.247903 0.845726 -0.495983
v -0.558778 0.843393 -0.381341
v -0.707767 1.111864 -0.174056
v -0.752134 1.187279 0.131163
v -0.679989 1.049430 0.452531
v -0.413241 1.136019 0.642237
v -0.119772 1.035371 0.709764
v 0.121782 0.774452 0.637020
v 0.331342 0.721891 0.394418
v -0.312298 0.602536 0.163274
v 0.458343 0.352029 0.092237
v -0.309774 0.335636 -0.072902
v -0.140879 0.110932 0.275841
vt 0.5000 0.5000
vt 0.3964 0.8866
vt 0.6036 0.8866
vt 0.2170 0.7830
vt 0.1134 0.6036
vt 0.1134 0.3964
vt 0.2170 0.2170
vt 0.3964 0.1134
vt 0.6036 0.1134
vt 0.7830 0.2170
vt 0.8866 0.3964
vt 0.8866 0.6036
vt 0.7830 0.7830
vt 0.5000 0.5000
vt 0.5000 0.5000
vt 0.3964 0.8866
vt 0.6036 0.8866
vt 0.2170 0.7830
vt 0.1134 0.6036
vt 0.1134 0.3964
vt 0.2170 0.2170
vt 0.3964 0.1134
vt 0.6036 0.1134
vt 0.7830 0.2170
vt 0.8866 0.3964
vt 0.8866 0.6036
vt 0.7830 0.7830
vt 0.5000 0.5000
vt 0.5000 0.5000
vt 0.3964 0.8866
vt 0.6036 0.8866
vt 0.2170 0.7830
vt 0.1134 0.6036
vt 0.1134 0.3964
vt 0.2170 0.2170
vt 0.3964 0.1134
vt 0.6036 0.1134
vt 0.7830 0.2170
vt 0.8866 0.3964
vt 0.8866 0.6036
vt 0.7830 0.7830
vt 0.5000 0.5000
vt 0.5000 0.5000
vt 0.3964 0.8866
vt 0.6036 0.8866
vt 0.2170 0.7830
vt 0.1134 0.6036
vt 0.1134 0.3964
vt 0.2170 0.2170
vt 0.3964 0.1134
vt 0.6036 0.1134
vt 0.7830 0.2170
vt 0.8866 0.3964
vt 0.8866 0.6036
vt 0.7830 0.7830
vt 0.5000 0.5000
vt 0.5000 0.5000
vt 0.3964 0.8866
vt 0.6036 0.8866
vt 0.2170 0.7830
vt 0.1134 0.6036
vt 0.1134 0.3964
vt 0.2170 0.2170
vt 0.3964 0.1134
vt 0.6036 0.1134
vt 0.7830 0.2170
vt 0.8866 0.3964
vt 0.8866 0.6036
vt 0.7830 0.7830
vt 0.5000 0.5000
vt 0.5000 0.5000
vt 0.3964 0.8866
vt 0.6036 0.8866
vt 0.2170 0.7830
vt 0.1134 0.6036
vt 0.1134 0.3964
vt 0.2170 0.2170
vt 0.3964 0.1134
vt 0.6036 0.1134
vt 0.7830 0.2170
vt 0.8866 0.3964
vt 0.8866 0.6036
vt 0.7830 0.7830
vt 0.5000 0.5000
vn -0.0631 -0.9810 -0.1832
vn -0.7764 0.1389 -0.6147
vn -0.3577 -0.0991 -0.9286
vn -0.9480 -0.1936 -0.2526
vn -0.9081 -0.2963 0.2959
vn -0.6583 -0.1022 0.7458
vn -0.2292 -0.4397 0.8684
vn 0.3239 -0.4672 0.8227
vn 0.7324 -0.1878 0.6545
vn 0.9056 -0.3992 0.1434
vn 0.8657 -0.2975 -0.4026
vn 0.6474 0.0596 -0.7598
vn 0.1875 -0.1271 -0.9740
vn 0.0820 0.9824 0.1675
vn -0.0546 -0.9810 0.1859
vn 0.2510 0.1905 0.9490
vn -0.2513 -0.0467 0.9668
vn 0.6389 -0.1586 0.7527
vn 0.9230 -0.2607 0.2829
vn 0.9689 -0.0607 -0.2398
vn 0.6971 -0.4042 -0.5922
vn 0.2202 -0.4319 -0.8746
vn -0.2470 -0.1335 -0.9597
vn -0.6672 -0.3481 -0.6585
vn -0.9502 -0.2465 -0.1906
vn -0.9663 0.1178 0.2288
vn -0.7217 -0.0741 0.6882
vn 0.0544 0.9810 -0.1858
vn -0.3070 -0.9417 0.1375
vn -0.8239 -0.0030 0.5667
vn -0.9561 -0.2794 0.0886
vn -0.4879 0.0510 0.8714
vn 0.0298 -0.2622 0.9645
vn 0.5598 0.0081 0.8286
vn 0.5935 -0.5741 0.5641
vn 0.6807 -0.7288 -0.0740
vn 0.7654 -0.3222 -0.5571
vn 0.2844 -0.6742 -0.6815
vn -0.2982 -0.4787 -0.8258
vn -0.5473 0.0558 -0.8350
vn -0.9217 0.1079 -0.3725
vn 0.3209 0.9366 -0.1408
vn -0.0025 -1.0000 0.0043
vn 0.5013 0.0030 0.8652
vn 0.0245 -0.2561 0.9663
vn 0.8145 -0.2810 0.5075
vn 0.9591 -0.2810 -0.0323
vn 0.8665 0.0099 -0.4990
vn 0.5065 -0.2738 -0.8176
vn -0.0298 -0.2738 -0.9613
vn -0.5008 0.0080 -0.8655
vn -0.8166 -0.2761 -0.5069
vn -0.9606 -0.2761 0.0306
vn -0.8667 0.0011 0.4988
vn -0.5044 -0.2561 0.8246
vn 0.0024 1.0000 -0.0041
vn 0.1084 -0.9941 0.0008
vn -0.3363 -0.0405 0.9409
vn -0.6838 -0.3390 0.6461
vn 0.1745 -0.2690 0.9472
vn 0.6755 -0.2116 0.7063
vn 0.9351 0.1093 0.3370
vn 0.9745 -0.1714 -0.1451
vn 0.7368 -0.1986 -0.6462
vn 0.3234 0.0386 -0.9454
vn -0.1115 -0.2946 -0.9491
vn -0.6107 -0.3518 -0.7094
vn -0.9366 -0.1100 -0.3325
vn -0.9182 -0.3658 0.1519
vn -0.1041 0.9946 -0.0007
vn 0.4783 -0.8769 -0.0475
vn 0.2175 0.1759 -0.9601
vn 0.7027 0.1285 -0.6997
vn -0.0654 -0.3009 -0.9514
vn -0.4899 -0.5440 -0.6812
vn -0.8582 -0.4324 -0.2766
vn -0.6956 -0.6927 0.1904
vn -0.4483 -0.5850 0.6758
vn -0.2270 -0.1596 0.9607
vn 0.3280 -0.1823 0.9269
vn 0.7508 0.0598 0.6578
vn 0.8492 0.4490 0.2778
vn 0.9466 0.2347 -0.2211
vn -0.4782 0.8769 0.0475
usemtl None_coral_color.png.006
s 1
f 68/14/2 70/15/3 69/16/4
f 68/14/2 71/17/5 70/15/3
f 68/14/2 72/18/6 71/17/5
f 68/14/2 73/19/7 72/18/6
f 68/14/2 74/20/8 73/19/7
f 68/14/2 75/21/9 74/20/8
f 68/14/2 76/22/10 75/21/9
f 68/14/2 77/23/11 76/22/10
f 68/14/2 78/24/12 77/23/11
f 68/14/2 79/25/13 78/24/12
f 68/14/2 80/26/14 79/25/13
f 68/14/2 69/16/4 80/26/14
f 96/27/15 69/16/4 70/15/3
f 96/27/15 70/15/3 71/17/5
f 96/27/15 71/17/5 72/18/6
f 96/27/15 72/18/6 73/19/7
f 96/27/15 73/19/7 74/20/8
f 96/27/15 74/20/8 75/21/9
f 96/27/15 75/21/9 76/22/10
f 96/27/15 76/22/10 77/23/11
f 96/27/15 77/23/11 78/24/12
f 96/27/15 78/24/12 79/25/13
f 96/27/15 79/25/13 80/26/14
f 96/27/15 80/26/14 69/16/4
usemtl None_coral_color.png.005
f 55/28/16 57/29/17 56/30/18
f 55/28/16 58/31/19 57/29/17
f 55/28/16 59/32/20 58/31/19
f 55/28/16 60/33/21 59/32/20
f 55/28/16 61/34/22 60/33/21
f 55/28/16 62/35/23 61/34/22
f 55/28/16 63/36/24 62/35/23
f 55/28/16 64/37/25 63/36/24
f 55/28/16 65/38/26 64/37/25
f 55/28/16 66/39/27 65/38/26
f 55/28/16 67/40/28 66/39/27
f 55/28/16 56/30/18 67/40/28
f 97/41/29 65/38/26 66/39/27
f 97/41/29 58/31/19 59/32/20
f 97/41/29 63/36/24 64/37/25
f 97/41/29 57/29/17 58/31/19
f 97/41/29 61/34/22 62/35/23
f 97/41/29 67/40/28 56/30/18
f 97/41/29 59/32/20 60/33/21
f 97/41/29 60/33/21 61/34/22
f 97/41/29 64/37/25 65/38/26
f 97/41/29 56/30/18 57/29/17
f 97/41/29 62/35/23 63/36/24
f 97/41/29 66/39/27 67/40/28
usemtl None_coral_color.png.007
f 81/42/30 83/43/31 82/44/32
f 81/42/30 84/45/33 83/43/31
f 81/42/30 85/46/34 84/45/33
f 81/42/30 86/47/35 85/46/34
f 81/42/30 87/48/36 86/47/35
f 81/42/30 88/49/37 87/48/36
f 81/42/30 89/50/38 88/49/37
f 81/42/30 90/51/39 89/50/38
f 81/42/30 91/52/40 90/51/39
f 81/42/30 92/53/41 91/52/40
f 81/42/30 93/54/42 92/53/41
f 81/42/30 82/44/32 93/54/42
f 94/55/43 82/44/32 83/43/31
f 94/55/43 83/43/31 84/45/33
f 94/55/43 84/45/33 85/46/34
f 94/55/43 85/46/34 86/47/35
f 94/55/43 86/47/35 87/48/36
f 94/55/43 87/48/36 88/49/37
f 94/55/43 88/49/37 89/50/38
f 94/55/43 89/50/38 90/51/39
f 94/55/43 90/51/39 91/52/40
f 94/55/43 91/52/40 92/53/41
f 94/55/43 92/53/41 93/54/42
f 94/55/43 93/54/42 82/44/32
usemtl None_coral_color.png.001
f 14/56/44 16/57/45 15/58/46
f 14/56/44 17/59/47 16/57/45
f 14/56/44 18/60/48 17/59/47
f 14/56/44 19/61/49 18/60/48
f 14/56/44 20/62/50 19/61/49
f 14/56/44 21/63/51 20/62/50
f 14/56/44 22/64/52 21/63/51
f 14/56/44 23/65/53 22/64/52
f 14/56/44 24/66/54 23/65/53
f 14/56/44 25/67/55 24/66/54
f 14/56/44 26/68/56 25/67/55
f 14/56/44 15/58/46 26/68/56
f 41/69/57 17/59/47 18/60/48
f 41/69/57 22/64/52 23/65/53
f 41/69/57 16/57/45 17/59/47
f 41/69/57 20/62/50 21/63/51
f 41/69/57 15/58/46 16/57/45
f 41/69/57 26/68/56 15/58/46
f 41/69/57 18/60/48 19/61/49
f 41/69/57 23/65/53 24/66/54
f 41/69/57 21/63/51 22/64/52
f 41/69/57 25/67/55 26/68/56
f 41/69/57 19/61/49 20/62/50
f 41/69/57 24/66/54 25/67/55
usemtl None_coral_color.png.002
f 27/70/58 29/71/59 28/72/60
f 27/70/58 30/73/61 29/71/59
f 27/70/58 31/74/62 30/73/61
f 27/70/58 32/75/63 31/74/62
f 27/70/58 33/76/64 32/75/63
f 27/70/58 34/77/65 33/76/64
f 27/70/58 35/78/66 34/77/65
f 27/70/58 36/79/67 35/78/66
f 27/70/58 37/80/68 36/79/67
f 27/70/58 38/81/69 37/80/68
f 27/70/58 39/82/70 38/81/69
f 27/70/58 28/72/60 39/82/70
f 40/83/71 38/81/69 39/82/70
f 40/83/71 39/82/70 28/72/60
f 40/83/71 36/79/67 37/80/68
f 40/83/71 35/78/66 36/79/67
f 40/83/71 34/77/65 35/78/66
f 40/83/71 33/76/64 34/77/65
f 40/83/71 32/75/63 33/76/64
f 40/83/71 31/74/62 32/75/63
f 40/83/71 30/73/61 31/74/62
f 40/83/71 29/71/59 30/73/61
f 40/83/71 28/72/60 29/71/59
f 40/83/71 37/80/68 38/81/69
usemtl None_coral_color.png.004
f 42/84/72 44/85/73 43/86/74
f 42/84/72 45/87/75 44/85/73
f 42/84/72 46/88/76 45/87/75
f 42/84/72 47/89/77 46/88/76
f 42/84/72 48/90/78 47/89/77
f 42/84/72 49/91/79 48/90/78
f 42/84/72 50/92/80 49/91/79
f 42/84/72 51/93/81 50/92/80
f 42/84/72 52/94/82 51/93/81
f 42/84/72 53/95/83 52/94/82
f 42/84/72 54/96/84 53/95/83
f 42/84/72 43/86/74 54/96/84
f 95/97/85 54/96/84 43/86/74
f 95/97/85 50/92/80 51/93/81
f 95/97/85 44/85/73 45/87/75
f 95/97/85 48/90/78 49/91/79
f 95/97/85 52/94/82 53/95/83
f 95/97/85 46/88/76 47/89/77
f 95/97/85 53/95/83 54/96/84
f 95/97/85 43/86/74 44/85/73
f 95/97/85 49/91/79 50/92/80
f 95/97/85 45/87/75 46/88/76
f 95/97/85 51/93/81 52/94/82
f 95/97/85 47/89/77 48/90/78
