# Blender v2.77 (sub 0) OBJ File: 'rock1.blend'
# www.blender.org
mtllib rock1.mtl
o Icosphere
v -0.220247 -0.724590 0.308555
v 1.025107 -0.224233 0.594042
v -0.217544 0.003645 1.377192
v -1.110721 -0.246096 0.336444
v -0.465023 -0.295012 -1.140178
v 0.916547 -0.335958 -0.766210
v 0.357702 0.338726 0.794614
v -0.879184 0.254018 0.607551
v -0.778758 0.280788 -0.636736
v 0.430862 0.127090 -1.217523
v 0.888469 0.046179 -0.140545
v 0.019846 0.506512 -0.142306
v -0.097706 -0.290462 1.284915
v 0.556359 -0.491153 0.768900
v 0.309336 -0.020825 1.207619
v 1.126141 -0.368145 -0.184965
v 0.447304 -0.648674 -0.405305
v -0.802489 -0.530177 0.453258
v -0.612076 -0.123723 1.102361
v -0.525528 -0.682746 -0.504905
v -1.013932 -0.290070 -0.378970
v 0.410400 -0.349741 -1.143767
v 1.072083 -0.072136 0.223013
v 1.113245 -0.147049 -0.438105
v -0.050872 0.334535 1.235673
v 0.705540 0.163023 0.757089
v -1.077274 0.031784 0.483141
v -0.741292 0.184494 1.032240
v -0.656850 0.086032 -1.043877
v -0.990740 0.120313 -0.308894
v 0.770015 -0.120437 -1.086110
v 0.045534 -0.008815 -1.486969
v 0.757899 0.239127 0.356933
v -0.320874 0.418266 0.810488
v -0.883356 0.245747 -0.043116
v -0.288019 0.294500 -1.168078
v 0.803022 0.085166 -0.662053
v 0.202976 0.425459 0.343403
v 0.511614 0.294393 -0.165056
v -0.498896 0.472017 0.160347
v -0.477069 0.512654 -0.449282
v 0.238448 0.505575 -0.724830
vt 0.4953 0.4980
vt 0.4159 0.6073
vt 0.3668 0.4562
vt 0.3215 0.7372
vt 0.4953 0.7654
vt 0.4953 0.3629
vt 0.6238 0.4562
vt 0.5747 0.6073
vt 0.3440 0.9641
vt 0.2140 0.4066
vt 0.2410 0.5806
vt 0.0053 0.4982
vt 0.4953 0.2023
vt 0.3381 0.2817
vt 0.3437 0.0320
vt 0.7765 0.4066
vt 0.6524 0.2817
vt 0.8916 0.2098
vt 0.6691 0.7372
vt 0.7496 0.5806
vt 0.8918 0.7859
vt 0.0988 0.7859
vt 0.0990 0.2098
vt 0.6469 0.0320
vt 0.9853 0.4982
vt 0.6465 0.9641
vt 0.2117 0.4065
vt 0.3360 0.2814
vt 0.3647 0.4562
vt 0.3193 0.7376
vt 0.2387 0.5807
vt 0.4138 0.6075
vt 0.6674 0.7376
vt 0.4933 0.7657
vt 0.5729 0.6075
vt 0.7750 0.4065
vt 0.7479 0.5807
vt 0.6220 0.4562
vt 0.4933 0.2019
vt 0.6507 0.2814
vt 0.4933 0.3627
vt 0.4933 0.4980
vt 0.6451 0.0314
vt 0.8902 0.2095
vt 0.9840 0.4982
vt 0.8904 0.7863
vt 0.6448 0.9647
vt 0.3419 0.9647
vt 0.0963 0.7863
vt 0.0027 0.4982
vt 0.0965 0.2095
vt 0.3416 0.0314
vn -0.0531 -0.9816 0.1833
vn 0.3809 -0.7922 0.4768
vn 0.0023 -0.6133 0.7898
vn 0.8616 -0.1927 0.4696
vn 0.8450 -0.5345 -0.0139
vn -0.5221 -0.8013 0.2921
vn -0.3242 -0.9057 -0.2730
vn 0.2333 -0.9602 -0.1533
vn 0.8990 0.4276 0.0942
vn -0.1610 0.0363 0.9863
vn 0.5239 0.0228 0.8515
vn 0.1014 0.7403 0.6646
vn -0.9288 -0.3357 0.1567
vn -0.6021 -0.3859 0.6989
vn -0.9334 0.2461 0.2611
vn -0.4525 -0.5357 -0.7129
vn -0.8863 -0.3648 -0.2854
vn -0.7225 0.2282 -0.6526
vn 0.6802 -0.5813 -0.4465
vn 0.2368 -0.7291 -0.6420
vn 0.7203 0.0471 -0.6920
vn 0.6405 0.6041 0.4741
vn -0.6653 0.4251 0.6137
vn -0.8897 0.4121 -0.1963
vn 0.0101 0.0478 -0.9988
vn 0.9319 0.2789 -0.2321
vn 0.3236 0.9135 0.2466
vn 0.5570 0.8286 0.0557
vn 0.2084 0.9756 0.0694
vn -0.6173 0.7624 0.1943
vn -0.1380 0.9684 0.2077
vn -0.2539 0.9642 0.0767
vn -0.6927 0.6456 -0.3213
vn -0.6442 0.7647 -0.0125
vn -0.2962 0.9476 -0.1196
vn 0.4538 0.6105 -0.6491
vn -0.2608 0.7265 -0.6357
vn 0.2858 0.9329 -0.2191
vn 0.5992 0.7968 -0.0770
vn 0.6427 0.7364 -0.2113
vn 0.4777 0.8784 -0.0148
vn 0.1596 0.9842 0.0770
usemtl None
s 1
f 1/1/1 14/2/2 13/3/3
f 2/4/4 14/2/2 16/5/5
f 1/1/1 13/3/3 18/6/6
f 1/1/1 18/6/6 20/7/7
f 1/1/1 20/7/7 17/8/8
f 2/4/4 16/5/5 23/9/9
f 3/10/10 15/11/11 25/12/12
f 4/13/13 19/14/14 27/15/15
f 5/16/16 21/17/17 29/18/18
f 6/19/19 22/20/20 31/21/21
f 2/4/4 23/9/9 26/22/22
f 3/10/10 25/12/12 28/23/23
f 4/13/13 27/15/15 30/24/24
f 5/16/16 29/18/18 32/25/25
f 6/19/19 31/21/21 24/26/26
f 7/27/27 33/28/28 38/29/29
f 8/30/30 34/31/31 40/32/32
f 9/33/33 35/34/34 41/35/35
f 10/36/36 36/37/37 42/38/38
f 11/39/39 37/40/40 39/41/41
f 39/41/41 42/38/38 12/42/42
f 39/41/41 37/40/40 42/38/38
f 37/40/40 10/36/36 42/38/38
f 42/38/38 41/35/35 12/42/42
f 42/38/38 36/37/37 41/35/35
f 36/37/37 9/33/33 41/35/35
f 41/35/35 40/32/32 12/42/42
f 41/35/35 35/34/34 40/32/32
f 35/34/34 8/30/30 40/32/32
f 40/32/32 38/29/29 12/42/42
f 40/32/32 34/31/31 38/29/29
f 34/31/31 7/27/27 38/29/29
f 38/29/29 39/41/41 12/42/42
f 38/29/29 33/28/28 39/41/41
f 33/28/28 11/39/39 39/41/41
f 24/43/26 37/40/40 11/39/39
f 24/43/26 31/44/21 37/40/40
f 31/44/21 10/36/36 37/40/40
f 32/45/25 36/37/37 10/36/36
f 32/45/25 29/46/18 36/37/37
f 29/46/18 9/33/33 36/37/37
f 30/47/24 35/34/34 9/33/33
f 30/47/24 27/48/15 35/34/34
f 27/48/15 8/30/30 35/34/34
f 28/49/23 34/31/31 8/30/30
f 28/49/23 25/50/12 34/31/31
f 25/50/12 7/27/27 34/31/31
f 26/51/22 33/28/28 7/27/27
f 26/51/22 23/52/9 33/28/28
f 23/52/9 11/39/39 33/28/28
f 31/44/21 32/45/25 10/36/36
f 31/21/21 22/20/20 32/25/25
f 22/20/20 5/16/16 32/25/25
f 29/46/18 30/47/24 9/33/33
f 29/18/18 21/17/17 30/24/24
f 21/17/17 4/13/13 30/24/24
f 27/48/15 28/49/23 8/30/30
f 27/15/15 19/14/14 28/23/23
f 19/14/14 3/10/10 28/23/23
f 25/50/12 26/51/22 7/27/27
f 25/12/12 15/11/11 26/22/22
f 15/11/11 2/4/4 26/22/22
f 23/52/9 24/43/26 11/39/39
f 23/9/9 16/5/5 24/26/26
f 16/5/5 6/19/19 24/26/26
f 17/8/8 22/20/20 6/19/19
f 17/8/8 20/7/7 22/20/20
f 20/7/7 5/16/16 22/20/20
f 20/7/7 21/17/17 5/16/16
f 20/7/7 18/6/6 21/17/17
f 18/6/6 4/13/13 21/17/17
f 18/6/6 19/14/14 4/13/13
f 18/6/6 13/3/3 19/14/14
f 13/3/3 3/10/10 19/14/14
f 16/5/5 17/8/8 6/19/19
f 16/5/5 14/2/2 17/8/8
f 14/2/2 1/1/1 17/8/8
f 13/3/3 15/11/11 3/10/10
f 13/3/3 14/2/2 15/11/11
f 14/2/2 2/4/4 15/11/11
