# Blender v2.77 (sub 0) OBJ File: 'kelp_grass.blend'
# www.blender.org
mtllib kelp_grass.mtl
o Leaf.002_Plane.002
v -0.276092 0.389608 0.662877
v 0.016438 0.000000 0.091371
v -0.053559 0.000000 0.060654
v -0.008605 0.202578 0.173437
v -0.068621 0.370464 0.299506
v -0.156409 0.444330 0.484947
v -0.226180 0.444330 0.454330
v -0.149144 0.370464 0.264171
v -0.096998 0.202578 0.134647
v 0.275801 0.219529 -0.833939
v 0.000068 0.000000 -0.173439
v 0.072080 0.000000 -0.147800
v 0.033664 0.176968 -0.297746
v 0.103321 0.273484 -0.480580
v 0.178381 0.339075 -0.673898
v 0.250161 0.339075 -0.648342
v 0.186162 0.273484 -0.451086
v 0.124602 0.176968 -0.265369
v -0.467520 0.754997 -0.153021
v -0.114867 0.001409 0.018246
v -0.088336 0.001409 -0.053442
v -0.162428 0.216208 0.011355
v -0.228067 0.422508 -0.017520
v -0.328664 0.609516 -0.061009
v -0.302218 0.609516 -0.132466
v -0.197546 0.422508 -0.099988
v -0.128924 0.216208 -0.079174
v 0.688598 0.498204 0.268115
v 0.140712 0.000000 -0.022330
v 0.140712 0.000000 0.054111
v 0.199074 0.212820 -0.027786
v 0.354877 0.368047 0.014335
v 0.535158 0.474155 0.097355
v 0.507866 0.470929 0.168420
v 0.332455 0.369605 0.099349
v 0.191360 0.212820 0.068435
v 0.289927 0.212509 0.302514
v 0.063104 0.000000 0.035715
v 0.033002 0.000000 0.064564
v 0.099219 0.110495 0.065480
v 0.150197 0.202067 0.122059
v 0.225287 0.242357 0.205036
v 0.195282 0.242357 0.233792
v 0.115569 0.202067 0.155246
v 0.061206 0.110495 0.101911
v -0.273072 0.352815 -0.519869
v 0.025346 0.000000 -0.020906
v 0.082533 0.000000 -0.059909
v -0.025648 0.183448 -0.079530
v -0.093644 0.335479 -0.186131
v -0.193897 0.402369 -0.342557
v -0.136895 0.402369 -0.381434
v -0.027858 0.335479 -0.230999
v 0.046568 0.183448 -0.128784
v 0.447517 0.658260 -0.121680
v 0.106897 0.001228 -0.150189
v 0.107839 0.001228 -0.083550
v 0.147744 0.188506 -0.159526
v 0.210199 0.368373 -0.156662
v 0.305678 0.531420 -0.152893
v 0.306617 0.531420 -0.086469
v 0.211284 0.368373 -0.080002
v 0.148934 0.188506 -0.075372
v -0.529227 0.176686 0.451637
v -0.085151 0.000000 0.084699
v -0.126816 0.000000 0.039433
v -0.155697 0.142431 0.160620
v -0.273874 0.220112 0.264694
v -0.399829 0.272902 0.374207
v -0.441360 0.272902 0.329087
v -0.321804 0.220112 0.212621
v -0.208312 0.142431 0.103457
v 0.111116 0.395376 0.421628
v 0.037548 0.000000 -0.064963
v -0.011200 0.000000 -0.028857
v 0.068595 0.168895 -0.030322
v 0.115326 0.292083 0.088934
v 0.147537 0.376291 0.243117
v 0.089326 0.373731 0.259281
v 0.050520 0.293320 0.114791
v 0.003588 0.168895 0.010209
vt 0.3563 0.0116
vt 0.0248 0.2546
vt 0.3627 0.2549
vt 0.1894 0.9986
vt 0.3497 0.7880
vt 0.0380 0.7841
vt 0.3552 0.4982
vt 0.0276 0.4979
vt 0.0283 0.0113
vt 0.3563 0.0116
vt 0.0248 0.2546
vt 0.3627 0.2549
vt 0.1894 0.9986
vt 0.3497 0.7880
vt 0.0380 0.7841
vt 0.3552 0.4982
vt 0.0276 0.4979
vt 0.0283 0.0113
vt 0.3627 0.2549
vt 0.0283 0.0113
vt 0.0248 0.2546
vt 0.1894 0.9986
vt 0.3497 0.7880
vt 0.0380 0.7841
vt 0.0276 0.4979
vt 0.3552 0.4982
vt 0.3563 0.0116
vt 0.3563 0.0116
vt 0.0248 0.2546
vt 0.3627 0.2549
vt 0.1894 0.9986
vt 0.3497 0.7880
vt 0.0380 0.7841
vt 0.3552 0.4982
vt 0.0276 0.4979
vt 0.0283 0.0113
vt 0.3563 0.0116
vt 0.0248 0.2546
vt 0.3627 0.2549
vt 0.1894 0.9986
vt 0.3497 0.7880
vt 0.0380 0.7841
vt 0.3552 0.4982
vt 0.0276 0.4979
vt 0.0283 0.0113
vt 0.3563 0.0116
vt 0.0248 0.2546
vt 0.3627 0.2549
vt 0.1894 0.9986
vt 0.3497 0.7880
vt 0.0380 0.7841
vt 0.0276 0.4979
vt 0.3552 0.4982
vt 0.0283 0.0113
vt 0.3563 0.0116
vt 0.0248 0.2546
vt 0.3627 0.2549
vt 0.1894 0.9986
vt 0.3497 0.7880
vt 0.0380 0.7841
vt 0.0276 0.4979
vt 0.3552 0.4982
vt 0.0283 0.0113
vt 0.3627 0.2549
vt 0.0283 0.0113
vt 0.0248 0.2546
vt 0.1894 0.9986
vt 0.3497 0.7880
vt 0.0380 0.7841
vt 0.0276 0.4979
vt 0.3552 0.4982
vt 0.3563 0.0116
vt 0.3627 0.2549
vt 0.0283 0.0113
vt 0.0248 0.2546
vt 0.1894 0.9986
vt 0.3497 0.7880
vt 0.0380 0.7841
vt 0.0276 0.4979
vt 0.3552 0.4982
vt 0.3563 0.0116
vn 0.9161 0.2137 0.3391
vn 0.9025 0.2717 0.3340
vn 0.6263 0.7443 0.2318
vn 0.7327 0.6242 0.2712
vn 0.8524 0.4171 0.3154
vn 0.3704 0.3877 -0.8441
vn 0.3432 0.5202 -0.7820
vn -0.1009 0.9680 0.2298
vn 0.0267 0.9978 -0.0609
vn 0.2320 0.8165 -0.5287
vn -0.2157 0.7657 0.6059
vn -0.2715 0.5872 0.7625
vn 0.1831 0.8378 -0.5143
vn 0.0348 0.9946 -0.0979
vn -0.1255 0.9273 0.3525
vn 0.5956 0.5872 -0.5482
vn 0.4733 0.7657 -0.4356
vn -0.4017 0.8378 0.3697
vn -0.0764 0.9946 0.0703
vn 0.2753 0.9273 -0.2534
vn -0.6378 0.3877 -0.6655
vn -0.5909 0.5202 -0.6166
vn 0.1737 0.9680 0.1812
vn -0.0461 0.9978 -0.0480
vn -0.3995 0.8165 -0.4169
vn 0.5194 0.3877 0.7615
vn 0.4812 0.5202 0.7055
vn -0.1414 0.9680 -0.2073
vn 0.0375 0.9978 0.0550
vn 0.3253 0.8165 0.4770
vn -0.9768 0.2137 0.0138
vn -0.9622 0.2717 0.0136
vn -0.6677 0.7443 0.0094
vn -0.7812 0.6242 0.0110
vn -0.9087 0.4171 0.0128
vn -0.8695 0.4901 -0.0607
vn -0.9661 0.2572 -0.0200
vn -0.8613 0.5006 -0.0871
vn -0.1437 0.9896 -0.0103
vn -0.3333 0.9389 -0.0855
vn -0.2985 0.9517 -0.0714
vn -0.5862 0.7923 -0.1690
vn -0.5961 0.7885 -0.1514
vn -0.9644 0.2644 0.0000
vn -0.4687 0.4901 -0.7349
vn -0.5589 0.2572 -0.7883
vn -0.4426 0.5006 -0.7439
vn -0.0773 0.9896 -0.1216
vn -0.1296 0.9389 -0.3187
vn -0.1203 0.9517 -0.2824
vn -0.2131 0.7923 -0.5716
vn -0.2331 0.7885 -0.5691
vn -0.5740 0.2644 -0.7750
usemtl None
s 1
f 20/1/1 27/2/2 22/3/2
f 19/4/3 24/5/4 25/6/4
f 23/7/5 25/6/4 24/5/4
f 22/3/2 26/8/5 23/7/5
f 20/1/1 21/9/1 27/2/2
f 23/7/5 26/8/5 25/6/4
f 22/3/2 27/2/2 26/8/5
usemtl None_kelp_color.png.017
f 2/10/6 9/11/7 4/12/7
f 1/13/8 6/14/9 7/15/9
f 5/16/10 7/15/9 6/14/9
f 4/12/7 8/17/10 5/16/10
f 2/10/6 3/18/6 9/11/7
f 5/16/10 8/17/10 7/15/9
f 4/12/7 9/11/7 8/17/10
usemtl None_kelp_color.png.018
f 13/19/11 12/20/12 18/21/11
f 10/22/13 15/23/14 16/24/14
f 15/23/14 17/25/15 16/24/14
f 13/19/11 17/25/15 14/26/15
f 13/19/11 11/27/12 12/20/12
f 15/23/14 14/26/15 17/25/15
f 13/19/11 18/21/11 17/25/15
usemtl None_kelp_color.png.041
f 65/28/16 72/29/17 67/30/17
f 64/31/18 69/32/19 70/33/19
f 68/34/20 70/33/19 69/32/19
f 67/30/17 71/35/20 68/34/20
f 65/28/16 66/36/16 72/29/17
f 68/34/20 71/35/20 70/33/19
f 67/30/17 72/29/17 71/35/20
usemtl None_kelp_color.png.038
f 38/37/21 45/38/22 40/39/22
f 37/40/23 42/41/24 43/42/24
f 41/43/25 43/42/24 42/41/24
f 40/39/22 44/44/25 41/43/25
f 38/37/21 39/45/21 45/38/22
f 41/43/25 44/44/25 43/42/24
f 40/39/22 45/38/22 44/44/25
usemtl None_kelp_color.png.039
f 47/46/26 54/47/27 49/48/27
f 46/49/28 51/50/29 52/51/29
f 51/50/29 53/52/30 52/51/29
f 49/48/27 53/52/30 50/53/30
f 47/46/26 48/54/26 54/47/27
f 51/50/29 50/53/30 53/52/30
f 49/48/27 54/47/27 53/52/30
usemtl None_kelp_color.png.040
f 56/55/31 63/56/32 58/57/32
f 55/58/33 60/59/34 61/60/34
f 60/59/34 62/61/35 61/60/34
f 58/57/32 62/61/35 59/62/35
f 56/55/31 57/63/31 63/56/32
f 60/59/34 59/62/35 62/61/35
f 58/57/32 63/56/32 62/61/35
usemtl None_kelp_color.png.037
f 31/64/36 30/65/37 36/66/38
f 28/67/39 33/68/40 34/69/41
f 33/68/40 35/70/42 34/69/41
f 32/71/43 36/66/38 35/70/42
f 31/64/36 29/72/44 30/65/37
f 33/68/40 32/71/43 35/70/42
f 32/71/43 31/64/36 36/66/38
usemtl None_kelp_color.png.042
f 76/73/45 75/74/46 81/75/47
f 73/76/48 78/77/49 79/78/50
f 78/77/49 80/79/51 79/78/50
f 77/80/52 81/75/47 80/79/51
f 76/73/45 74/81/53 75/74/46
f 78/77/49 77/80/52 80/79/51
f 77/80/52 76/73/45 81/75/47
